<svg xmlns="http://www.w3.org/2000/svg" viewBox="0 0 800 960">
  <rect width="800" height="960" fill="#1c1714"/>
  <rect x="42" y="42" width="716" height="876" rx="36" fill="#2b201c" stroke="#c6a16a" stroke-width="4"/>
  <circle cx="400" cy="304" r="146" fill="#6d4b3f"/>
  <path d="M260 744c22-138 101-214 140-214s118 76 140 214" fill="#4f342b"/>
  <path d="M308 264c22-76 180-109 242-28 24 31 37 82 29 126-16-49-53-62-92-62-58 0-101 16-134 46-36 31-54 71-54 71-18-65-14-112 9-153z" fill="#201514"/>
  <text x="400" y="858" fill="#f5e4cc" font-family="Georgia, serif" font-size="48" text-anchor="middle">Mara Voss</text>
</svg>
