<svg xmlns="http://www.w3.org/2000/svg" viewBox="0 0 800 960">
  <rect width="800" height="960" fill="#191316"/>
  <rect x="42" y="42" width="716" height="876" rx="36" fill="#2b1d24" stroke="#c97e94" stroke-width="4"/>
  <circle cx="400" cy="304" r="146" fill="#86586a"/>
  <path d="M248 742c34-136 94-214 152-214s118 78 152 214" fill="#613e4f"/>
  <path d="M293 252c18-78 82-124 161-124 88 0 161 64 159 168-17-29-57-51-106-55-76-7-142 12-193 72-12 14-21 27-28 41-10-33-8-67 7-102z" fill="#2a151d"/>
  <text x="400" y="858" fill="#ffe8ef" font-family="Georgia, serif" font-size="48" text-anchor="middle">Lena Orlov</text>
</svg>
