<svg xmlns="http://www.w3.org/2000/svg" viewBox="0 0 800 960">
  <rect width="800" height="960" fill="#181512"/>
  <rect x="42" y="42" width="716" height="876" rx="36" fill="#241d18" stroke="#b89363" stroke-width="4"/>
  <circle cx="400" cy="304" r="146" fill="#795d46"/>
  <path d="M256 742c42-138 98-208 144-208 52 0 112 70 144 208" fill="#6b523d"/>
  <path d="M298 252c31-61 86-96 138-96 91 0 155 84 150 179-22-26-44-45-76-54-25-8-55-10-87-6-62 6-110 30-143 77-17-34-10-71 18-100z" fill="#261b14"/>
  <text x="400" y="858" fill="#f3e8d3" font-family="Georgia, serif" font-size="48" text-anchor="middle">Rohan Bell</text>
</svg>
